<?xml version="1.0" encoding="UTF-8"?>
<svg id="Layer_2" data-name="Layer 2" xmlns="http://www.w3.org/2000/svg" viewBox="0 0 1039.92 901.02">
  <g id="Layer_1-2" data-name="Layer 1">
    <g>
      <path d="M1035.8,855.92L545.88,14.9c-11.57-19.87-40.27-19.87-51.84,0L4.12,855.92c-11.65,20,2.78,45.1,25.92,45.1h979.83c23.15,0,37.57-25.1,25.92-45.1ZM58.08,860.51L519.96,60.51l461.88,800H58.08Z"/>
      <path d="M357.35,557.3s-1.15-44.49,25.97-44.49c35.99,0,35.99,18.46,35.99,18.46-15.2,0-27.45,11.69-26.87,25.91.53,12.92,11.88,23.46,25.82,23.95,15.33.54,27.93-10.82,27.93-24.92,0-23.72-18.57-57.84-62.37-57.84-51.54,0-62.24,24.13-62.24,58.94l-.16,17.08c-.3,22.42-18.56,40.43-40.98,40.43h-14.25v18.56h54.68v119.68c0,14.43,0,23.22-1.83,28.22-1.84,5.01-5.19,8.98-10.05,11.93-4.86,2.95-10.24,4.42-16.12,4.42h-9.06l-.93,14.38h120.82l.93-14.38h-18.33c-9.13,0-16.42-3.24-21.87-9.72-4.12-5-7.11-16-7.11-34.85v-78.7c0-22.64,18.35-40.99,40.99-40.99h21.39v-18.56h-62.37v-14.58l.02-42.93Z"/>
      <g>
        <path id="path1334" d="M619.66,498.17c-86.41,2.19-155.94,73.06-155.94,160s71.68,160,160,160,160-71.68,160-160-71.68-160-160-160c-1.38,0-2.69-.03-4.06,0ZM619.59,528.18c1.39-.04,2.74,0,4.14,0,71.75,0,129.99,58.24,129.99,129.99,0,71.75-58.24,129.99-129.99,129.99s-129.99-58.24-129.99-129.99,56.03-127.78,125.85-129.99Z"/>
        <path id="path2371" d="M554.31,632.09h-13.7l31.09,34.84,31.09-34.84h-11.22c2.43-17,17.38-27.93,34.66-26.56.68.05,1.34,0,2.03,0,28.14,0,39.23,21.28,40.16,52.66.96,32.75-18.02,53.1-40.16,52.66-23.37-.46-32.22-11.64-35.62-28.59h-41.72c6.87,39.06,35.62,61.96,76.41,62.03,46.17.08,79.53-38.55,79.53-86.09,0-50.77-33.35-86.09-79.53-86.09-1.37,0-2.71-.07-4.06,0-.33.02-.61,0-.94,0-28.86.48-68.01,20.7-68.01,60Z"/>
      </g>
      <g>
        <path d="M496.26,428.48c0-14.72,10.22-25.34,24.12-25.34,14.72,0,24.12,10.63,24.12,25.34s-9.4,25.34-24.12,25.34-24.12-11.04-24.12-25.34Z"/>
        <polygon points="506.48 370.03 500.76 173.82 540 173.82 534.28 370.03 506.48 370.03"/>
      </g>
    </g>
  </g>
</svg>