<?xml version="1.0" encoding="UTF-8"?>
<svg id="Layer_2" data-name="Layer 2" xmlns="http://www.w3.org/2000/svg" viewBox="0 0 1260.42 792.79">
  <defs>
    <style>
      .cls-1 {
        fill: #212121;
      }
    </style>
  </defs>
  <g id="Layer_5" data-name="Layer 5">
    <g>
      <g>
        <path class="cls-1" d="M311.01,261.38c0-28.19-4.9-38-23.29-47.81l-11.03-6.13c-3.68-1.23-4.9-2.45-4.9-4.9v-3.68c0-2.45,1.22-3.68,4.9-5.52l74.16-34.93c3.68-1.22,6.13-2.45,9.81-2.45s4.9,3.68,5.52,7.36l5.52,45.35h2.45c20.84-34.32,46.58-55.16,73.55-55.16,19.61,0,31.87,13.48,31.87,30.64s-17.16,33.1-33.1,33.1c-8.58,0-15.94-2.45-20.84-4.9-4.9-3.68-11.03-4.9-17.16-4.9-7.35,0-18.39,4.9-25.74,17.77-4.9,8.58-7.36,22.06-7.36,30.03v117.06c0,19.61,4.9,25.74,17.16,25.74h26.97c3.68,0,4.9,1.22,4.9,4.29v14.1c0,3.06-1.22,4.29-4.29,4.29-4.29,0-31.26-1.84-76-1.84s-66.81,1.84-71.71,1.84c-3.06,0-4.29-1.23-4.29-4.29v-13.48c0-3.68,1.23-4.9,5.52-4.9h21.45c9.81,0,15.94-4.9,15.94-16.55v-120.13Z"/>
        <path class="cls-1" d="M573.86,282.83c0,62.52,44.74,99.29,79.67,99.29,38,0,61.29-15.94,74.16-35.55,2.45-4.29,4.9-4.29,7.36-3.06l9.19,5.52c3.07,1.84,4.29,4.29,0,12.26-12.87,23.29-44.13,64.97-111.55,64.97-39.22,0-66.81-8.58-88.25-33.1-28.19-32.48-34.32-63.13-34.32-101.13,0-33.71,3.67-56.39,30.03-90.71,25.74-33.09,53.32-45.35,106.64-45.35,69.87,0,92.54,72.93,92.54,98.06,0,9.19-6.13,9.81-17.16,9.81h-148.32v19ZM649.85,241.76c12.87,0,20.23-3.68,20.23-8.58,0-18.39-6.13-54.55-38-54.55-30.03,0-48.42,22.06-56.39,63.13h74.16Z"/>
        <path class="cls-1" d="M855.83,282.83c0,62.52,44.74,99.29,79.67,99.29,38,0,61.29-15.94,74.16-35.55,2.45-4.29,4.9-4.29,7.36-3.06l9.19,5.52c3.07,1.84,4.29,4.29,0,12.26-12.87,23.29-44.13,64.97-111.55,64.97-39.22,0-66.81-8.58-88.25-33.1-28.19-32.48-34.32-63.13-34.32-101.13,0-33.71,3.67-56.39,30.03-90.71,25.74-33.09,53.32-45.35,106.64-45.35,69.87,0,92.54,72.93,92.54,98.06,0,9.19-6.13,9.81-17.16,9.81h-148.32v19ZM931.83,241.76c12.87,0,20.23-3.68,20.23-8.58,0-18.39-6.13-54.55-38-54.55-30.03,0-48.42,22.06-56.39,63.13h74.16Z"/>
        <path class="cls-1" d="M150.12,74.93s-1.66-56.6,32.82-56.55c45.76.07,45.85,23.55,45.85,23.55-19.32-.03-34.85,14.82-34.05,32.91.73,16.44,15.22,29.86,32.94,30.52,19.49.72,35.47-13.72,35.41-31.65-.11-30.18-12.55-73.71-94.41-73.71-53.53,0-77.05,30.58-76.89,74.86l-.05,32.2c-.29,28.52-23.42,52.4-51.93,52.36l-13.53-.02c-2.54,0-4.59,2.05-4.58,4.59l.05,14.42c0,2.54,2.07,4.6,4.61,4.6l64.94.1.45,160.97c.06,18.36.12,29.54-2.2,35.91-2.32,6.37-6.56,11.42-12.73,15.16-6.17,3.74-13,5.6-20.48,5.59l-8.83.23c-2.92.03-5.05,2.74-4.41,5.59l.6,10.77c0,2.58,2.08,4.66,4.66,4.6,13.36-.3,51.98-1.14,67.69-1.26,20.25-.16,89.86,1.59,89.86,1.59,2.48,0,4.54-2.02,4.57-4.51l.12-10.31c.03-2.57-2.04-4.68-4.61-4.68l-17.97-.03c-11.61-.02-20.9-4.15-27.85-12.41-5.27-6.37-9.12-20.37-9.2-44.35l-.28-110.65c-.1-28.8,23.15-52.11,51.93-52.07l22.6.03c2.54,0,4.59-2.05,4.58-4.59l-.05-14.42c0-2.54-2.07-4.6-4.61-4.6l-74.72-.11-.07-18.55-.24-66.09Z"/>
      </g>
      <g>
        <path class="cls-1" d="M0,649.21c0-89.51,52.25-141.77,134.95-141.77,71.79,0,114.96,38.17,123.14,105.87l-62.25,12.27c-7.27-39.98-24.99-60.89-62.7-60.89-48.16,0-68.16,36.8-68.16,84.51,0,54.07,20.45,87.24,67.7,87.24,39.99,0,56.34-21.36,64.52-61.79l61.8,10.45c-8.18,68.16-53.16,107.69-125.86,107.69C48.62,792.79,0,739.17,0,649.21Z"/>
        <path class="cls-1" d="M449.83,726h-105.42l-18.63,60.43h-67.7l95.42-272.63h89.97l94.96,272.63h-69.97l-18.63-60.43ZM359.41,678.29h75.43l-10.45-33.62c-7.72-24.54-14.99-49.98-21.36-74.52h-10.91c-6.82,24.54-14.54,49.98-22.26,74.52l-10.45,33.62Z"/>
        <path class="cls-1" d="M567.06,513.8h119.05c69.97,0,100.42,22.26,100.42,69.52,0,35.9-20.45,55.89-57.25,64.07v4.09c49.98,5,68.61,21.81,68.61,60.43,0,44.53-28.63,74.52-100.42,74.52h-130.41v-272.63ZM632.49,563.78v65.88h52.25c25.45,0,39.53-9.09,39.53-34.08,0-21.81-10.45-31.81-37.71-31.81h-54.07ZM632.49,674.2v64.07h62.7c25.9,0,37.71-12.72,37.71-32.26,0-20.9-9.09-31.81-39.53-31.81h-60.89Z"/>
        <path class="cls-1" d="M905.11,727.81h116.77v58.61h-182.2v-272.63h65.43v214.01Z"/>
        <path class="cls-1" d="M1054.14,513.8h206.29v56.8h-140.4v52.71h129.04v50.89h-129.04v55.43h139.95v56.8h-205.83v-272.63Z"/>
      </g>
    </g>
  </g>
</svg>