<?xml version="1.0" encoding="UTF-8" standalone="no"?>
<svg
   id="Layer_2"
   data-name="Layer 2"
   viewBox="0 0 72 48.04"
   version="1.1"
   sodipodi:docname="black smiley.svg"
   inkscape:version="1.2.2 (732a01da63, 2022-12-09)"
   xmlns:inkscape="http://www.inkscape.org/namespaces/inkscape"
   xmlns:sodipodi="http://sodipodi.sourceforge.net/DTD/sodipodi-0.dtd"
   xmlns="http://www.w3.org/2000/svg"
   xmlns:svg="http://www.w3.org/2000/svg">
  <sodipodi:namedview
     id="namedview356"
     pagecolor="#ffffff"
     bordercolor="#000000"
     borderopacity="0.25"
     inkscape:showpageshadow="2"
     inkscape:pageopacity="0.0"
     inkscape:pagecheckerboard="0"
     inkscape:deskcolor="#d1d1d1"
     showgrid="false"
     inkscape:zoom="16.805556"
     inkscape:cx="33.173554"
     inkscape:cy="24.039669"
     inkscape:window-width="1920"
     inkscape:window-height="1009"
     inkscape:window-x="-8"
     inkscape:window-y="-8"
     inkscape:window-maximized="1"
     inkscape:current-layer="BADGE_STYLE" />
  <defs
     id="defs344">
    <style
       id="style342">
      .cls-1 {
        fill: #212121;
      }
    </style>
  </defs>
  <g
     id="BADGE_STYLE"
     data-name="BADGE STYLE"
     style="fill:#ff00ff">
    <g
       id="g352"
       style="fill:#fdbc44;fill-opacity:1">
      <path
         class="cls-1"
         d="M36.17,4.49c.18,2.69-16.31,9.51-20.52,10.09s-1.49-5.4-1.49-5.4c0,0-13.93,1.6-14.15.1C-.39,6.57,15.93.27,18.4.02c3.14-.33,1.06,4.94,1.06,4.94,0,0,16.57-2.56,16.71-.47Z"
         id="path346"
         style="fill:#fdbc44;fill-opacity:1" />
      <path
         class="cls-1"
         d="M48.65,19.23c1.2,2.81,7.49-1.39,7.49-1.39,0,0,5.43,7.91,7.72,6.73,2.29-1.19.29-9.33.29-9.33,0,0,8.3-1.04,7.83-3.23-.45-2.1-8.45-3.65-8.45-3.65,0,0,1.06-7.86-1.5-8.34s-6.06,6.2-6.06,6.2c0,0-8.49-2.64-9.49-.47-1,2.17,5.08,7.42,5.08,7.42,0,0-3.53,4.62-2.91,6.05Z"
         id="path348"
         style="fill:#fdbc44;fill-opacity:1" />
      <path
         class="cls-1"
         d="M6.05,23.96c2.76-1.92,16.48,4.82,15.54,7.69-.95,2.87-6.84.2-6.84.2,0,0,8.6,11.52,23.45,10.6,17.81-1.1,23.81-14.96,26.05-13.78s4.02,5.32,2.66,7.82-16.62,12.71-33.23,11.44-24.61-14.06-24.61-14.06c0,0-3.1,6.27-6.7,5.85-2.14-.25,1.99-14.59,3.68-15.77Z"
         id="path350"
         style="fill:#fdbc44;fill-opacity:1" />
    </g>
  </g>
</svg>
